<?xml version="1.0" encoding="iso-8859-1"?>
<!-- Generator: Adobe Illustrator 19.0.0, SVG Export Plug-In . SVG Version: 6.00 Build 0)  -->
<svg version="1.1" id="Capa_1" xmlns="http://www.w3.org/2000/svg" xmlns:xlink="http://www.w3.org/1999/xlink" x="0px" y="0px"
	 viewBox="0 0 512 512" style="enable-background:new 0 0 512 512;" xml:space="preserve">
<circle style="fill:#270600;" cx="256" cy="256" r="256"/>
<g>
	<path style="fill:#FF3200;" d="M275.384,377.323L177.541,58.172c-5.026-16.029-23.709-24.848-44.429-26.791
		c-2.947-0.282-5.935-0.418-8.934-0.418c-24.064,0-47.616,8.902-53.363,27.209L61.108,90.01L1.633,285.039
		c5.099,45.16,21.943,86.768,47.407,121.678c1.034-1.557,1.849-3.333,2.414-5.329l17.784-65.4h110.403l17.784,65.4
		c3.145,10.992,13.604,15.182,26.687,15.182c22.497,0,52.318-14.127,52.318-33.489C276.429,381.513,275.907,379.413,275.384,377.323
		z M85.987,273.21l38.191-140.224l38.191,140.224H85.987z"/>
	<path style="fill:#FF3200;" d="M509.085,217.246c-15.955-31.577-44.418-52.861-75.577-52.861
		c-35.056,0-60.175,19.351-70.112,39.758v-12.027c0-14.649-16.217-24.597-35.579-24.597c-23.541,0-40.281,9.947-40.281,24.597
		V391.45c0,12.56,16.739,25.119,40.281,25.119c21.974,0,40.813-12.56,40.813-25.119V274.255c0-24.586,17.784-39.246,35.056-39.246
		c20.919,0,37.668,19.362,37.668,39.246V391.45c0,9.853,7.44,16.812,17.397,20.866C492.137,369.079,512,314.849,512,256.001
		C512,242.825,511.007,229.889,509.085,217.246z"/>
</g>
<g>
</g>
<g>
</g>
<g>
</g>
<g>
</g>
<g>
</g>
<g>
</g>
<g>
</g>
<g>
</g>
<g>
</g>
<g>
</g>
<g>
</g>
<g>
</g>
<g>
</g>
<g>
</g>
<g>
</g>
</svg>
